<svg xmlns="http://www.w3.org/2000/svg" viewBox="0 0 292 284">
  <path fill="#f59c00" d="M267.428 159.807c-19.812 0-34.677 2.815-40.428-15.1-.983-3.062-3.482-5.42-6.64-6.022-16.444-3.134-30.418-6.92-38.704-24.165-3.144-6.542 2.688-17.737-2.656-19.68-18.052-6.012-18.339-27.123-18.322-41.873a70.848 70.848 0 0 1 11.933-39.446C177.451 2.916 148.09 4.02 142.886 4 66.733 4 5 65.785 5 142s61.733 138 137.886 138c68.632 0 125.383-50 136.057-115.687-.53-6.883-7.18-4.518-11.515-4.506z"/>
  <path fill="#63c3d1" d="M239.457 85.394c4.407-2.232 9.591-1.758 13.532 1.237l5.84 4.438c2.862 2.174 4.666 5.354 5.081 8.953.415 3.6-.618 7.116-2.907 9.9l-6.88 8.364c-2.489 3.026-6.087 4.714-9.89 4.714-5.238.078-10.243-4.193-11.912-7.937l-4.277-10.11c-2.69-6.362-.012-13.77 6.098-16.866zm-32.851-55.638c6.064-1.827 9.314 1.652 13.894 6.043 4.58 4.39 9.5 8.745 7.965 14.914l-3.998 16.064A17.463 17.463 0 0 1 215.684 78c-2.518 1.328-3.942 2.557-8.084 2-4.143-.557-4.122-5.258-6.092-6l-11.22-4.225c-7.76-2.923-12.414-6.115-11.052-14.327l1.267-7.637c1.081-6.516 5.852-11.953 12.152-13.851l13.95-4.204zM256 42c4.543 0 10.675-1.541 13 2 1.343 2.046 0 8.375 0 11 0 7.168-5.832 9.474-13 9.474S243 62.168 243 55c0-4.046 3.476-4.614 6.383-7 2.244-1.841 3.495-6 6.617-6z"/>
  <path fill="#162259" d="M160 240c2.21 0 4 1.897 4 4.236v4.528c0 2.34-1.79 4.236-4 4.236s-4-1.897-4-4.236v-4.528c0-2.34 1.79-4.236 4-4.236Zm-41.946-21.552c2.03-1.046 4.497-.198 5.511 1.894 1.015 2.093.192 4.637-1.837 5.683-2.927 1.51-5.854 3.018-8.782 4.527-2.106.965-4.648-.207-5.511-1.894-1.015-2.092-.192-4.637 1.837-5.683l8.782-4.527zM174 178c12.13 0 22 9.87 22 22s-9.87 22-22 22-22-9.869-22-22 9.87-22 22-22zm-84.5-9c9.65 0 17.5 7.85 17.5 17.5S99.15 204 89.5 204 72 196.15 72 186.5 79.85 169 89.5 169Zm126.842.435c2.093-1.015 4.637-.192 5.683 1.837l4.527 8.782c1.046 2.03.198 4.497-1.894 5.512-2.052 1.124-4.757-.135-5.683-1.838l-4.527-8.782c-1.046-2.03-.198-4.497 1.894-5.511zm-35.288-21.986c2.03-1.048 4.496-.199 5.511 1.894 1.015 2.092.192 4.636-1.837 5.682-2.927 1.51-5.854 3.018-8.782 4.527-2.106.965-4.648-.207-5.511-1.894-1.015-2.092-.192-4.637 1.837-5.682 2.927-1.51 5.854-3.018 8.782-4.527zm-76.813.792a4.236 4.236 0 0 1 5.99 0l4.528 4.527a4.236 4.236 0 0 1 0 5.991c-1.642 1.702-4.402 1.54-5.99 0l-4.528-4.528a4.236 4.236 0 0 1 0-5.99zm-56.899-14.806c2.093-1.016 4.637-.192 5.683 1.837l4.527 8.782c1.046 2.03.198 4.497-1.894 5.512-1.924 1.21-4.757-.135-5.683-1.838l-4.527-8.781c-1.046-2.03-.198-4.498 1.894-5.512zM138 107c7.168 0 13 5.832 13 13s-5.832 13-13 13-13-5.832-13-13 5.832-13 13-13zM80 76c12.13 0 22 9.87 22 22s-9.87 22-22 22-22-9.87-22-22 9.869-22 22-22Zm54.769-3.76a4.236 4.236 0 1 1 5.99 5.991l-4.528 4.528c-1.851 1.562-4.402 1.54-5.99 0a4.236 4.236 0 0 1 0-5.99l4.528-4.528zm-21.528-27a4.236 4.236 0 0 1 5.99 0l4.528 4.529a4.236 4.236 0 0 1 0 5.99c-1.641 1.737-4.402 1.54-5.99 0l-4.528-4.528a4.235 4.235 0 0 1 0-5.99z"/>
</svg>
