<?xml version="1.0" encoding="utf-8"?>
<!-- Generator: Adobe Illustrator 25.4.1, SVG Export Plug-In . SVG Version: 6.00 Build 0)  -->
<svg version="1.1" id="Ebene_1" xmlns="http://www.w3.org/2000/svg" xmlns:xlink="http://www.w3.org/1999/xlink" x="0px" y="0px"
	 viewBox="0 0 64 64" style="enable-background:new 0 0 64 64;" xml:space="preserve">
<style type="text/css">
	.st0{fill:#FFFFFF;}
</style>
<path id="Differenzmenge_2" class="st0" d="M32,64C14.3,64,0,49.7,0,32S14.3,0,32,0s32,14.3,32,32S49.7,64,32,64z M16,28.8
	c-1.8,0-3.2,1.4-3.2,3.2c0,0.9,0.4,1.7,1,2.3l15.9,15.2l23.2-26.2c1.2-1.3,1.1-3.3-0.3-4.5c-1.3-1.2-3.3-1.1-4.5,0.3L29.3,40.3
	L18.2,29.7C17.6,29.1,16.8,28.8,16,28.8z"/>
</svg>
