<svg width="19" height="25" viewBox="0 0 19 25" xmlns="http://www.w3.org/2000/svg">
  <path d="M16.406 9.375h-.781V6.25A6.256 6.256 0 009.375 0a6.256 6.256 0 00-6.25 6.25v3.125h-.781A2.347 2.347 0 000 11.719v10.937A2.347 2.347 0 002.344 25h14.062a2.347 2.347 0 002.344-2.344V11.72a2.347 2.347 0 00-2.344-2.344zM5.208 6.25a4.17 4.17 0 014.167-4.167 4.17 4.17 0 014.167 4.167v3.125H5.208V6.25zm5.209 11.169v2.373a1.041 1.041 0 11-2.084 0v-2.373a2.077 2.077 0 01-1.041-1.794c0-1.149.934-2.083 2.083-2.083s2.083.934 2.083 2.083c0 .768-.422 1.432-1.041 1.794z" fill="#CDCDCD" fill-rule="nonzero"/>
</svg>
